<svg xmlns="http://www.w3.org/2000/svg" version="1.1" xmlns:xlink="http://www.w3.org/1999/xlink" xmlns:svgjs="http://svgjs.dev/svgjs" width="1500" height="1500" viewBox="0 0 1500 1500"><rect width="1500" height="1500" fill="#000000"></rect><g transform="matrix(0.6666666666666666,0,0,0.6666666666666666,250.00023122904423,187.66666666666674)"><svg viewBox="0 0 320 360" data-background-color="#c8c8c8" preserveAspectRatio="xMidYMid meet" height="1687" width="1500" xmlns="http://www.w3.org/2000/svg" xmlns:xlink="http://www.w3.org/1999/xlink"><g id="tight-bounds" transform="matrix(1,0,0,1,-0.00007399329416557521,0)"><svg viewBox="0 0 320 360" height="360" width="320"><g><svg></svg></g><g><svg viewBox="0 0 320 360" height="360" width="320"><g><path transform="translate(-17.30355,3.60951) scale(3.54253,3.54253)" d="M50 95v0c-2.2 0-4.1-1.4-4.7-3.5-0.3-1.1-1.5-1.7-2.5-1.4-0.4 0.1-0.8 0.4-1.1 0.8-1.6 2.2-4.6 2.8-6.9 1.2-1.4-0.9-2.2-2.5-2.1-4.2 0-1.1-0.9-2.1-2-2.1-0.5 0-0.9 0.1-1.3 0.4-2.2 1.6-5.3 1.2-6.9-1-1-1.3-1.3-3-0.7-4.6 0.4-1.1-0.2-2.2-1.3-2.6-0.4-0.1-0.9-0.1-1.3 0-2.6 0.9-5.4-0.5-6.3-3.1-0.5-1.5-0.3-3.3 0.7-4.6 0.7-0.9 0.5-2.2-0.4-2.8-0.4-0.3-0.8-0.4-1.3-0.4-2.7 0.1-5-2.1-5-4.8 0-1.7 0.8-3.2 2.1-4.2 0.9-0.6 1.1-1.9 0.5-2.8-0.3-0.4-0.6-0.6-1.1-0.8-2.6-0.8-4.1-3.6-3.3-6.2 0.5-1.6 1.7-2.8 3.3-3.3 1.1-0.3 1.7-1.5 1.4-2.5-0.1-0.4-0.4-0.8-0.8-1.1-2.2-1.6-2.8-4.6-1.2-6.9 0.9-1.4 2.5-2.2 4.2-2.1 1.1 0 2.1-0.9 2.1-2 0-0.5-0.1-0.9-0.4-1.3-1.6-2.2-1.2-5.3 1-6.9 1.3-1 3-1.3 4.6-0.7 1.1 0.4 2.2-0.2 2.6-1.3 0.1-0.4 0.1-0.9 0-1.3-0.9-2.6 0.5-5.4 3.1-6.3 1.5-0.5 3.3-0.3 4.6 0.7 0.9 0.7 2.2 0.5 2.8-0.4 0.3-0.4 0.4-0.8 0.4-1.3-0.1-2.7 2.1-5 4.8-5 1.7 0 3.2 0.8 4.2 2.1 0.6 0.9 1.9 1.1 2.8 0.5 0.4-0.3 0.6-0.6 0.8-1.1 0.8-2.6 3.6-4.1 6.2-3.3 1.6 0.5 2.8 1.7 3.3 3.3v0c0.2 0.7 0.8 1.3 1.6 1.4 0.8 0.1 1.5-0.2 2-0.8 1.6-2.2 4.6-2.8 6.9-1.2 1.4 0.9 2.2 2.5 2.1 4.2 0 1.1 0.9 2.1 2 2.1 0.5 0 0.9-0.1 1.3-0.4 2.2-1.6 5.3-1.2 6.9 1 1 1.3 1.3 3 0.7 4.6-0.4 1.1 0.2 2.2 1.3 2.6 0.4 0.1 0.9 0.1 1.3 0 2.6-0.9 5.4 0.5 6.3 3.1 0.5 1.5 0.3 3.3-0.7 4.6-0.7 0.9-0.5 2.2 0.4 2.8 0.4 0.3 0.8 0.4 1.3 0.4 2.7-0.1 5 2.1 5 4.8 0 1.7-0.8 3.2-2.1 4.2-0.7 0.4-1 1.2-0.9 2 0.1 0.8 0.7 1.4 1.4 1.6 2.6 0.8 4.1 3.6 3.3 6.2-0.5 1.6-1.7 2.8-3.3 3.3-1.1 0.3-1.7 1.5-1.4 2.5 0.1 0.4 0.4 0.8 0.8 1.1 2.2 1.6 2.8 4.6 1.2 6.9-0.9 1.4-2.5 2.2-4.2 2.1-0.8 0-1.5 0.4-1.9 1.1-0.4 0.7-0.3 1.5 0.2 2.2 1.6 2.2 1.2 5.3-1 6.9-1.3 1-3 1.3-4.6 0.7-1.1-0.4-2.2 0.2-2.6 1.3-0.1 0.4-0.1 0.9 0 1.3 0.9 2.6-0.5 5.4-3.1 6.3-1.5 0.5-3.3 0.3-4.6-0.7-0.9-0.7-2.2-0.5-2.8 0.4-0.3 0.4-0.4 0.8-0.4 1.3 0.1 2.7-2.1 5-4.8 5-1.7 0-3.2-0.8-4.2-2.1-0.4-0.6-1.2-1-2-0.8-0.8 0.1-1.4 0.7-1.6 1.4-0.6 2.1-2.5 3.5-4.7 3.5zM43.3 87.2c0.3 0 0.5 0 0.8 0.1 1.9 0.3 3.4 1.6 3.9 3.4 0.3 1.1 1.5 1.7 2.5 1.3 0.6-0.2 1.1-0.7 1.3-1.3 0.8-2.6 3.6-4.1 6.2-3.3 1 0.3 2 1 2.6 1.9 0.7 0.9 1.9 1.1 2.9 0.4 0.5-0.4 0.8-1 0.8-1.6-0.1-2.7 2.1-5 4.8-5 1.1 0 2.2 0.3 3.1 1 0.9 0.7 2.2 0.5 2.8-0.4 0.4-0.5 0.5-1.3 0.3-1.9-0.9-2.6 0.4-5.4 3-6.3 1.1-0.4 2.2-0.4 3.3 0 1.1 0.4 2.2-0.2 2.6-1.3 0.2-0.6 0.1-1.4-0.3-1.9-1.6-2.2-1.2-5.3 1-6.9 0.9-0.7 2-1 3.1-1 1.1 0 2-0.9 2.1-2 0-0.7-0.3-1.3-0.9-1.7-2.2-1.6-2.8-4.6-1.2-6.9 0.6-0.9 1.5-1.6 2.6-1.9 1.1-0.3 1.7-1.5 1.3-2.5-0.2-0.6-0.7-1.1-1.3-1.3-2.6-0.8-4.1-3.6-3.3-6.2 0.3-1 1-2 1.9-2.6 0.9-0.7 1.1-2 0.4-2.9-0.4-0.5-1-0.8-1.6-0.8-2.7 0.1-5-2.1-5-4.8 0-1.1 0.3-2.2 1-3.1 0.7-0.9 0.5-2.2-0.4-2.8-0.5-0.4-1.3-0.5-1.9-0.3-2.6 0.9-5.4-0.4-6.3-3-0.4-1.1-0.4-2.2 0-3.3 0.4-1.1-0.2-2.2-1.3-2.6-0.6-0.2-1.4-0.1-1.9 0.3-2.2 1.6-5.3 1.2-6.9-1-0.7-0.9-1-2-1-3.1 0-1.1-0.9-2-2.1-2-0.6 0-1.3 0.3-1.6 0.8-1.6 2.2-4.6 2.8-6.9 1.2-0.9-0.6-1.6-1.5-1.9-2.6v0c-0.3-1.1-1.5-1.7-2.5-1.3-0.6 0.2-1.1 0.7-1.3 1.3-0.8 2.6-3.6 4.1-6.2 3.3-1-0.3-2-1-2.6-1.9-0.7-0.9-1.9-1.1-2.9-0.4-0.5 0.4-0.8 1-0.8 1.6 0.1 2.7-2.1 5-4.8 5-1.1 0-2.2-0.3-3.1-1-0.9-0.7-2.2-0.5-2.8 0.4-0.4 0.5-0.5 1.3-0.3 1.9 0.9 2.6-0.4 5.4-3 6.3-1.1 0.4-2.2 0.4-3.3 0-1.1-0.4-2.2 0.2-2.6 1.3-0.2 0.6-0.1 1.4 0.3 1.9 1.6 2.2 1.2 5.3-1 6.9-0.9 0.7-2 1-3.1 1-1.1 0-2 0.9-2 2.1 0 0.6 0.3 1.3 0.8 1.6 2.2 1.6 2.8 4.6 1.2 6.9-0.6 0.9-1.5 1.6-2.6 1.9-1.1 0.3-1.7 1.5-1.3 2.5 0.2 0.6 0.7 1.1 1.3 1.3 2.6 0.8 4.1 3.6 3.3 6.2-0.3 1-1 2-1.9 2.6-0.9 0.7-1.1 1.9-0.4 2.9 0.4 0.5 1 0.8 1.6 0.8 2.7-0.1 5 2.1 5 4.8 0 1.1-0.3 2.2-1 3.1-0.7 0.9-0.5 2.2 0.4 2.8 0.5 0.4 1.3 0.5 1.9 0.3 2.6-0.9 5.4 0.4 6.3 3 0.4 1.1 0.4 2.2 0 3.3-0.4 1.1 0.2 2.2 1.3 2.6 0.6 0.2 1.4 0.1 1.9-0.3 2.2-1.6 5.3-1.2 6.9 1 0.7 0.9 1 2 1 3.1 0 1.1 0.9 2 2 2.1 0.7 0 1.3-0.3 1.7-0.9 1-1.3 2.5-2.1 4.1-2.1z" fill="#ffffff" fill-rule="nonzero" stroke="none" stroke-width="1" stroke-linecap="butt" stroke-linejoin="miter" stroke-miterlimit="10" stroke-dasharray="" stroke-dashoffset="0" font-family="none" font-weight="none" font-size="none" text-anchor="none" style="mix-blend-mode: normal" data-fill-palette-color="tertiary"></path></g><g transform="matrix(1,0,0,1,56.000000000000014,115.19897817313576)"><svg viewBox="0 0 207.99999999999997 129.6020436537285" height="129.6020436537285" width="207.99999999999997"><g><svg viewBox="0 0 207.99999999999997 129.6020436537285" height="129.6020436537285" width="207.99999999999997"><g><svg viewBox="0 0 208.00000000000003 129.60204365372851" height="129.6020436537285" width="207.99999999999997"><g transform="matrix(1,0,0,1,0,77.95393795610865)"><svg viewBox="0 0 208.00000000000003 51.648105697619854" height="51.648105697619854" width="208.00000000000003"><g id="textblocktransform"><svg viewBox="0 0 208.00000000000003 51.648105697619854" height="51.648105697619854" width="208.00000000000003" id="textblock"><g><svg viewBox="0 0 208.00000000000003 27.85652028159571" height="27.85652028159571" width="208.00000000000003"><g transform="matrix(1,0,0,1,0,0)"><svg width="208.00000000000003" viewBox="-0.73 -37.3 291.28000000000003 39.01" height="27.85652028159571" data-palette-color="#000000"><path d="M22.9-34.91L22.9-34.91Q22.8-34.72 22.83-34.52 22.85-34.33 22.85-34.08L22.85-34.08Q22.75-33.5 22.85-33.5 22.95-33.5 22.95-33.4L22.95-33.4 22.61-32.91Q22.61-32.62 22.49-32.37 22.36-32.13 22.41-31.79L22.41-31.79Q22.27-31.54 22.14-31.3 22.02-31.05 21.78-30.81L21.78-30.81 21.14-30.81Q20.61-30.81 20-30.74 19.38-30.66 18.8-30.66L18.8-30.66Q18.7-30.66 18.55-30.69 18.41-30.71 18.26-30.71L18.26-30.71Q18.16-30.71 18.02-30.69 17.87-30.66 17.68-30.66L17.68-30.66Q16.94-30.66 16.24-30.74 15.53-30.81 14.75-30.81L14.75-30.81Q14.55-30.81 14.36-30.81 14.16-30.81 13.92-30.76L13.92-30.76Q13.87-29.93 13.84-29.08 13.82-28.22 13.82-27.34L13.82-27.34Q13.82-27.1 13.77-26.83 13.72-26.56 13.72-26.32L13.72-26.32Q13.67-25.68 13.65-25.1 13.62-24.51 13.62-23.88L13.62-23.88Q13.62-22.51 13.65-21.14 13.67-19.78 13.72-18.36L13.72-18.36Q13.77-17.63 13.82-16.94 13.87-16.26 13.87-15.53L13.87-15.53Q13.87-13.87 13.82-12.23 13.77-10.6 13.77-8.94L13.77-8.94Q13.77-8.4 13.72-7.93 13.67-7.47 13.67-6.93L13.67-6.93Q13.67-5.81 13.72-4.69 13.77-3.56 13.77-2.44L13.77-2.44Q13.77-1.9 13.75-1.37 13.72-0.83 13.72-0.29L13.72-0.29Q13.48 0.1 13.38 0.39 13.28 0.68 12.79 0.68L12.79 0.68Q12.45 0.59 12.48 0.46 12.5 0.34 12.4 0.24L12.4 0.24Q11.96 0.2 11.74 0.32 11.52 0.44 11.23 0.54L11.23 0.54Q11.08 0.49 10.91 0.49 10.74 0.49 10.6 0.49L10.6 0.49Q10.5 0.49 10.4 0.56 10.3 0.63 9.96 0.63L9.96 0.63Q9.67 0.68 9.62 0.54 9.57 0.39 9.33 0.39L9.33 0.39Q9.08 0.54 8.76 0.61 8.45 0.68 8.15 0.68L8.15 0.68Q7.86 0.49 7.89 0.32 7.91 0.15 7.81-0.05L7.81-0.05Q7.76-0.15 7.64-0.32 7.52-0.49 7.42-0.59L7.42-0.59Q7.52-1.27 7.57-1.81 7.62-2.34 7.62-2.98L7.62-2.98Q7.62-4.25 7.52-5.47 7.42-6.69 7.42-7.96L7.42-7.96Q7.42-8.35 7.52-8.79 7.62-9.23 7.62-9.72L7.62-9.72Q7.52-10.11 7.57-10.18 7.62-10.25 7.62-10.35L7.62-10.35Q7.62-10.64 7.59-10.94 7.57-11.23 7.57-11.52L7.57-11.52Q7.57-12.11 7.59-12.7 7.62-13.28 7.62-13.87L7.62-13.87Q7.62-14.11 7.59-14.38 7.57-14.65 7.57-14.89L7.57-14.89Q7.52-15.33 7.54-15.82 7.57-16.31 7.57-16.8L7.57-16.8Q7.57-19.14 7.5-21.44 7.42-23.73 7.42-26.07L7.42-26.07Q7.42-27.2 7.54-28.37 7.67-29.54 7.67-30.71L7.67-30.71Q7.67-30.86 7.57-31.1 7.47-31.35 7.37-31.45L7.37-31.45Q7.13-31.45 6.91-31.47 6.69-31.49 6.45-31.49L6.45-31.49Q5.91-31.49 5.42-31.35L5.42-31.35Q4.49-31.3 3.64-31.23 2.78-31.15 1.9-31.1L1.9-31.1Q1.32-31.15 1.2-31.13 1.07-31.1 0.93-31.1L0.93-31.1Q0.54-31.1 0.34-31.3L0.34-31.3 0.34-31.93Q0.05-32.52 0.1-32.57 0.15-32.62 0.15-32.71L0.15-32.71Q0.15-32.86-0.12-33.03-0.39-33.2-0.39-33.59L-0.39-33.59Q-0.44-33.98-0.59-34.18-0.73-34.38-0.73-34.57L-0.73-34.57Q-0.73-34.91-0.59-35.35L-0.59-35.35Q-0.15-35.6 0.27-35.69 0.68-35.79 1.22-35.94L1.22-35.94Q1.51-36.04 1.76-36.13 2-36.23 2.29-36.28L2.29-36.28Q2.64-36.33 2.98-36.33 3.32-36.33 3.66-36.38L3.66-36.38Q4.39-36.52 5.2-36.62 6.01-36.72 6.74-36.72L6.74-36.72Q7.42-36.72 8.11-36.55 8.79-36.38 9.33-36.38L9.33-36.38Q10.11-36.38 10.82-36.28 11.52-36.18 12.3-36.18L12.3-36.18Q12.4-36.18 12.62-36.11 12.84-36.04 13.13-36.04L13.13-36.04 17.87-36.04Q18.26-35.94 18.43-35.99 18.6-36.04 18.75-36.04L18.75-36.04Q19.14-36.04 19.48-35.99 19.82-35.94 20.21-35.94L20.21-35.94Q20.56-35.94 20.75-35.99L20.75-35.99Q21.14-35.94 21.48-35.77 21.83-35.6 22.27-35.6L22.27-35.6Q22.46-35.45 22.56-35.23 22.66-35.01 22.9-34.91ZM45.8-36.28L46.29-36.13Q46.87-36.28 47.12-36.25 47.36-36.23 47.6-36.18L47.6-36.18Q47.9-35.99 48.09-35.69L48.09-35.69Q48.09-34.67 48.07-33.67 48.04-32.67 48.04-31.64L48.04-31.64Q48.04-29.79 48.09-27.93 48.14-26.07 48.09-24.22L48.09-24.22Q48.19-23.78 48.14-23.73 48.09-23.68 48.09-23.58L48.09-23.58Q48.09-21.73 48.19-19.92 48.29-18.12 48.29-16.26L48.29-16.26 48.29-9.77Q48.29-7.67 48.41-5.62 48.53-3.56 48.53-1.51L48.53-1.51Q48.53-1.32 48.29-0.98L48.29-0.98Q48.19-0.59 48-0.34L48-0.34Q47.56-0.29 47.17-0.49L47.17-0.49Q46.97-0.49 46.9-0.37 46.82-0.24 46.68-0.15L46.68-0.15Q46.29-0.15 46.04 0.05 45.8 0.24 45.46 0.24L45.46 0.24Q45.16 0.24 44.89 0.17 44.63 0.1 44.28 0.1L44.28 0.1Q44.19 0.1 43.99 0.27 43.8 0.44 43.7 0.49L43.7 0.49Q43.45 0.49 43.26 0.56 43.06 0.63 42.82 0.63L42.82 0.63Q42.58 0.44 42.6 0.05 42.62-0.34 42.28-0.44L42.28-0.44Q42.28-0.68 42.31-0.98 42.33-1.27 42.33-1.56L42.33-1.56Q42.33-3.47 42.23-5.4 42.14-7.32 42.09-9.23L42.09-9.23Q42.04-10.06 42.06-10.86 42.09-11.67 42.09-12.5L42.09-12.5Q42.09-12.94 42.09-13.38 42.09-13.82 41.99-14.21L41.99-14.21Q41.7-14.26 41.48-14.14 41.26-14.01 41.01-14.01L41.01-14.01Q39.99-13.67 39.65-13.33L39.65-13.33Q39.35-13.33 39.16-13.23 38.96-13.13 38.72-13.04L38.72-13.04Q38.33-12.94 37.96-12.87 37.6-12.79 37.2-12.65L37.2-12.65Q36.96-12.55 36.72-12.45 36.47-12.35 36.23-12.26L36.23-12.26Q35.69-12.06 35.15-11.89 34.62-11.72 34.08-11.52L34.08-11.52Q33.54-11.43 33.15-11.23 32.76-11.04 32.37-10.84L32.37-10.84Q32.03-8.54 32-6.47 31.98-4.39 32.13-2.34L32.13-2.34Q32.03-2.05 32.03-1.68 32.03-1.32 31.88-1.07L31.88-1.07Q31.35-0.93 31.17-1.05 31-1.17 30.81-1.27L30.81-1.27Q30.61-1.22 30.49-1.07 30.37-0.93 30.27-0.83L30.27-0.83Q29.88-0.83 29.66-0.66 29.44-0.49 29.25-0.39L29.25-0.39Q29.1-0.34 28.95-0.39 28.81-0.44 28.61-0.34L28.61-0.34Q28.12-0.34 28.15-0.46 28.17-0.59 28.02-0.59L28.02-0.59Q27.83-0.59 27.76-0.42 27.68-0.24 27.49-0.15L27.49-0.15Q27.29-0.05 27.05-0.02 26.8 0 26.56 0.1L26.56 0.1Q26.32-0.15 26.32-0.44 26.32-0.73 26.07-0.98L26.07-0.98Q25.97-1.66 25.95-2.32 25.93-2.98 25.78-3.66L25.78-3.66Q25.88-5.03 25.85-5.86 25.83-6.69 25.83-7.57L25.83-7.57Q25.83-8.35 25.78-9.13 25.73-9.91 25.68-10.69L25.68-10.69Q25.58-12.11 25.51-13.57 25.44-15.04 25.44-16.5L25.44-16.5Q25.44-17.72 25.56-18.9 25.68-20.07 25.68-21.29L25.68-21.29Q25.68-22.12 25.71-22.92 25.73-23.73 25.73-24.56L25.73-24.56Q25.73-25.24 25.71-25.9 25.68-26.56 25.68-27.2L25.68-27.2Q25.68-27.93 25.78-28.64 25.88-29.35 25.88-30.03L25.88-30.03Q25.88-30.86 25.78-31.67 25.68-32.47 25.68-33.3L25.68-33.3Q25.68-33.54 25.73-33.76 25.78-33.98 25.78-34.23L25.78-34.23Q25.73-34.77 25.83-34.89 25.93-35.01 26.02-35.21L26.02-35.21Q26.27-35.25 26.56-35.35 26.85-35.45 27.1-35.35L27.1-35.35Q27.39-35.64 27.9-35.64 28.42-35.64 28.66-35.99L28.66-35.99Q29-35.94 29.12-35.96 29.25-35.99 29.34-35.99L29.34-35.99Q29.78-35.89 29.81-36.01 29.83-36.13 29.98-36.13L29.98-36.13Q30.22-36.13 30.73-36.11 31.25-36.08 31.44-35.89L31.44-35.89Q31.93-33.3 31.98-30.62 32.03-27.93 32.03-25.29L32.03-25.29Q32.03-24.61 32.08-23.9 32.13-23.19 32.03-22.51L32.03-22.51Q32.03-22.22 31.98-21.95 31.93-21.68 31.93-21.39L31.93-21.39Q31.93-20.56 31.83-19.65 31.74-18.75 31.74-17.92L31.74-17.92Q32.32-17.58 32.74-17.7 33.15-17.82 33.54-17.97L33.54-17.97Q34.03-18.12 34.45-18.29 34.86-18.46 35.3-18.6L35.3-18.6Q35.69-18.8 36.15-18.92 36.62-19.04 37.01-19.14L37.01-19.14Q38.28-19.58 39.5-20.21 40.72-20.85 41.99-21.24L41.99-21.24Q41.89-23.93 41.89-26.59 41.89-29.25 41.89-31.88L41.89-31.88Q41.89-32.62 41.89-33.4 41.89-34.18 41.99-34.91L41.99-34.91Q42.04-35.11 42.11-35.23 42.19-35.35 42.19-35.6L42.19-35.6Q42.33-35.84 42.53-35.94 42.72-36.04 42.82-36.23L42.82-36.23Q42.92-36.13 43.04-36.06 43.16-35.99 43.31-35.94L43.31-35.94Q43.7-36.04 43.77-36.08 43.85-36.13 43.94-36.18L43.94-36.18Q44.19-36.28 44.58-36.28 44.97-36.28 45.21-36.28L45.21-36.28 45.8-36.28ZM71.38-6.84L71.38-6.84Q71.77-6.2 71.97-5.62 72.16-5.03 72.16-4.79L72.16-4.79Q72.16-4.44 72.04-4.22 71.92-4 71.72-3.76L71.72-3.76Q69.77-2.93 67.84-2.22 65.91-1.51 63.91-0.83L63.91-0.83Q63.42-0.68 62.96-0.51 62.5-0.34 61.96-0.24L61.96-0.24Q61.86-0.15 61.62-0.05 61.37 0.05 61.05 0.15 60.74 0.24 60.44 0.32 60.15 0.39 60.05 0.39L60.05 0.39Q59.96 0.15 59.86 0.1 59.76 0.05 59.66 0L59.66 0Q59.42 0 59.35 0.17 59.27 0.34 59.03 0.44L59.03 0.44Q58.78 0.44 58.59 0.46 58.39 0.49 58.25 0.39L58.25 0.39Q57.86 0.49 57.54 0.73 57.22 0.98 56.83 1.07L56.83 1.07Q56.1 0.88 55.93 0.9 55.76 0.93 55.56 0.98L55.56 0.98Q55.22 0.68 55.24 0.15 55.27-0.39 54.98-0.73L54.98-0.73Q54.98-1.37 54.88-1.44 54.78-1.51 54.78-1.61L54.78-1.61Q54.78-1.95 54.83-2.25 54.88-2.54 54.78-2.88L54.78-2.88Q54.98-3.71 54.93-4.49 54.88-5.27 54.98-6.05L54.98-6.05Q54.98-6.3 55-6.52 55.02-6.74 55.02-6.98L55.02-6.98Q55.02-7.71 55.12-7.89 55.22-8.06 55.22-8.3L55.22-8.3Q55.22-8.64 55.2-8.96 55.17-9.28 55.17-9.67L55.17-9.67Q55.17-10.35 55.2-11.01 55.22-11.67 55.22-12.4L55.22-12.4Q55.22-14.26 54.98-16.11 54.73-17.97 54.73-19.82L54.73-19.82Q54.73-22.07 54.49-24.27 54.24-26.46 54.24-28.71L54.24-28.71Q54.24-29.1 54.24-29.81 54.24-30.52 54.24-31.27 54.24-32.03 54.27-32.71 54.29-33.4 54.34-33.69L54.34-33.69Q54.34-33.74 54.63-33.84 54.93-33.94 55.02-33.94L55.02-33.94Q55.27-33.94 55.41-33.81 55.56-33.69 55.76-33.59L55.76-33.59Q56.64-33.69 56.81-33.76 56.98-33.84 57.08-33.84L57.08-33.84Q57.37-33.84 57.54-33.69 57.71-33.54 57.81-33.54L57.81-33.54Q58.64-33.74 58.71-33.59 58.78-33.45 59.03-33.45L59.03-33.45Q59.66-33.64 59.81-33.59 59.96-33.54 60.1-33.54L60.1-33.54Q60.35-33.54 60.64-33.72 60.93-33.89 61.18-33.98L61.18-33.98Q62.01-34.23 62.54-34.47L62.54-34.47Q63.28-34.91 63.64-35.06 64.01-35.21 64.4-35.4L64.4-35.4Q65.23-35.74 65.99-36.11 66.74-36.47 67.57-36.87L67.57-36.87Q67.72-36.87 67.89-36.89 68.06-36.91 68.16-37.01L68.16-37.01Q68.31-36.96 68.48-36.96 68.65-36.96 68.79-36.96L68.79-36.96Q69.28-36.77 69.43-36.72L69.43-36.72Q69.62-36.43 69.79-36.16 69.97-35.89 70.21-35.64L70.21-35.64Q70.45-35.21 70.6-35.21L70.6-35.21Q70.6-35.06 70.45-34.89 70.31-34.72 70.31-34.57L70.31-34.57Q70.7-33.89 70.94-33.3 71.19-32.71 71.19-32.47L71.19-32.47Q71.19-32.13 71.09-31.91 70.99-31.69 70.84-31.45L70.84-31.45Q68.99-30.57 67.11-29.71 65.23-28.86 63.28-28.03L63.28-28.03Q62.79-27.83 62.35-27.61 61.91-27.39 61.37-27.29L61.37-27.29Q61.27-27.2 60.93-27.12 60.59-27.05 60.4-27.05L60.4-27.05Q60.49-26.22 60.52-25.42 60.54-24.61 60.59-23.78L60.59-23.78Q60.64-23.1 60.76-22.34 60.88-21.58 60.98-20.85L60.98-20.85Q62.59-21.53 64.18-22.22 65.77-22.9 67.38-23.58L67.38-23.58Q67.67-23.54 67.99-23.49 68.31-23.44 68.6-23.34L68.6-23.34Q68.7-23.24 68.79-23.1 68.89-22.95 69.04-22.85L69.04-22.85Q68.99-22.61 69.36-22.12 69.72-21.63 69.72-21.39L69.72-21.39Q69.72-21 69.82-20.92 69.92-20.85 70.01-20.51L70.01-20.51Q70.06-20.02 70.01-19.97L70.01-19.97Q70.26-19.73 70.41-19.48 70.55-19.24 70.55-18.9L70.55-18.9Q69.87-18.07 69.18-17.8 68.5-17.53 67.82-17.24L67.82-17.24Q67.57-17.14 67.3-16.97 67.04-16.8 66.79-16.7L66.79-16.7Q66.4-16.55 66.04-16.43 65.67-16.31 65.28-16.11L65.28-16.11Q64.64-15.77 63.98-15.36 63.33-14.94 62.64-14.79L62.64-14.79Q62.1-14.65 61.93-14.48 61.76-14.31 61.37-14.01L61.37-14.01 61.37-12.7 61.37-10.25Q61.37-9.77 61.37-9.25 61.37-8.74 61.32-8.2L61.32-8.2Q61.23-7.71 61.23-7.37L61.23-7.37 61.23-6.59Q61.47-6.69 61.71-6.76 61.96-6.84 62.2-6.93L62.2-6.93Q62.4-6.98 62.57-6.98 62.74-6.98 62.93-7.08L62.93-7.08Q63.18-7.13 63.33-7.18 63.47-7.23 63.67-7.32L63.67-7.32Q64.4-7.71 64.79-7.84 65.18-7.96 65.57-8.11L65.57-8.11Q66.4-8.4 67.18-8.72 67.96-9.03 68.75-9.33L68.75-9.33Q69.23-9.23 69.43-9.47L69.43-9.47Q69.67-9.42 69.84-9.38 70.01-9.33 70.26-9.33L70.26-9.33Q70.84-8.79 70.99-8.5 71.14-8.2 71.38-7.96L71.38-7.96Q71.63-7.52 71.72-7.52L71.72-7.52Q71.72-7.42 71.58-7.2 71.43-6.98 71.38-6.84ZM114.39-5.86L114.39-5.86Q113.91-5.81 113.81-5.91L113.81-5.91Q113.61-5.81 113.44-5.71 113.27-5.62 113.08-5.47L113.08-5.47Q112.39-5.22 111.73-4.83 111.07-4.44 110.39-4.1L110.39-4.1Q110-3.91 109.63-3.78 109.27-3.66 108.88-3.47L108.88-3.47Q108.29-3.17 107.7-2.86 107.12-2.54 106.48-2.29L106.48-2.29Q106.14-2.2 105.82-2.1 105.51-2 105.17-1.9L105.17-1.9Q104.78-1.76 104.46-1.59 104.14-1.42 103.8-1.27L103.8-1.27Q103.55-1.17 103.29-1.1 103.02-1.03 102.72-0.88L102.72-0.88Q102.48-0.78 102.31-0.63 102.14-0.49 101.89-0.39L101.89-0.39Q101.5-0.24 101.09-0.1 100.67 0.05 100.28 0.24L100.28 0.24Q99.89 0.44 99.72 0.61 99.55 0.78 99.06 0.93L99.06 0.93Q98.57 1.22 98.53 1.25 98.48 1.27 98.38 1.27L98.38 1.27Q98.23 1.37 98.11 1.44 97.99 1.51 97.84 1.61L97.84 1.61Q97.55 1.61 97.26 1.66 96.96 1.71 96.67 1.71L96.67 1.71Q96.33 1.51 96.21 1.32 96.08 1.12 96.08 0.78L96.08 0.78Q95.89 0.54 95.72 0.24 95.55-0.05 95.35-0.29L95.35-0.29Q95.01-0.1 94.94-0.32 94.86-0.54 94.81-0.81 94.77-1.07 94.72-1.34 94.67-1.61 94.62-1.71L94.62-1.71Q94.37-2.64 94.37-3.08L94.37-3.08Q94.37-3.32 94.47-3.39 94.57-3.47 94.57-3.61L94.57-3.61Q94.62-4.1 94.67-4.74 94.72-5.37 94.72-6.05 94.72-6.74 94.72-7.42 94.72-8.11 94.72-8.64L94.72-8.64Q94.72-10.84 94.67-12.92 94.62-14.99 94.62-17.09L94.62-17.09Q94.62-18.07 94.67-19.04 94.72-20.02 94.72-21L94.72-21Q94.72-23.39 94.79-25.73 94.86-28.08 94.86-30.47L94.86-30.47Q94.86-31.45 94.77-32.45 94.67-33.45 94.62-34.47L94.62-34.47Q94.57-35.01 94.67-35.33 94.77-35.64 94.72-35.99L94.72-35.99Q94.86-36.04 95.25-36.04 95.64-36.04 96.06-36.06 96.47-36.08 96.84-36.11 97.21-36.13 97.3-36.18L97.3-36.18Q97.65-35.94 97.99-35.94L97.99-35.94Q98.33-35.94 98.62-36.23L98.62-36.23Q98.87-36.13 98.89-36.08 98.92-36.04 99.16-36.04L99.16-36.04Q99.6-36.08 99.84-36.11 100.09-36.13 100.28-36.13L100.28-36.13Q100.82-35.74 100.94-35.18 101.06-34.62 101.11-34.01 101.16-33.4 101.19-32.79 101.21-32.18 101.21-31.79L101.21-31.79Q101.21-31.49 101.26-31.18 101.31-30.86 101.31-30.52L101.31-30.52Q101.31-30.27 101.28-30.03 101.26-29.79 101.26-29.54L101.26-29.54Q101.26-28.13 101.28-26.66 101.31-25.2 101.31-23.78L101.31-23.78Q101.31-21.24 101.24-18.68 101.16-16.11 101.16-13.57L101.16-13.57Q101.16-13.04 101.21-12.5 101.26-11.96 101.26-11.43L101.26-11.43Q101.26-11.13 101.24-10.84 101.21-10.55 101.21-10.25L101.21-10.25Q101.21-8.45 101.36-6.64L101.36-6.64Q101.55-6.69 102.19-6.91 102.82-7.13 103.51-7.4 104.19-7.67 104.78-7.93 105.36-8.2 105.51-8.35L105.51-8.35Q105.7-8.35 106.04-8.5 106.39-8.64 106.78-8.86 107.17-9.08 107.53-9.28 107.9-9.47 108.05-9.62L108.05-9.62Q108-10.6 108-11.6 108-12.6 108-13.57L108-13.57Q108-16.26 108.07-18.95 108.14-21.63 108.14-24.41L108.14-24.41Q108.14-26.12 108.1-27.83 108.05-29.54 108.05-31.25L108.05-31.25Q108.05-31.79 108.07-32.35 108.1-32.91 108.1-33.45L108.1-33.45Q108.1-34.28 108.07-35.08 108.05-35.89 108.14-36.72L108.14-36.72Q108.63-36.96 108.68-36.96L108.68-36.96Q108.97-36.96 109.1-36.96 109.22-36.96 109.32-36.87L109.32-36.87Q109.46-36.82 109.58-36.84 109.71-36.87 109.85-36.87L109.85-36.87Q110.1-36.87 110.34-36.77 110.59-36.67 110.83-36.67L110.83-36.67Q111.22-36.72 111.24-36.57 111.27-36.43 111.42-36.43L111.42-36.43Q111.81-36.57 111.95-36.43L111.95-36.43Q112.1-36.33 112.49-36.16 112.88-35.99 113.32-35.79 113.76-35.6 114.1-35.42 114.44-35.25 114.44-35.11L114.44-35.11Q114.59-34.33 114.54-33.45 114.49-32.57 114.49-31.79L114.49-31.79Q114.49-31.1 114.54-30.42 114.59-29.74 114.59-29.05L114.59-29.05Q114.59-28.66 114.59-28.27 114.59-27.88 114.64-27.54L114.64-27.54Q114.69-27.29 114.69-27.12 114.69-26.95 114.69-26.76L114.69-26.76Q114.69-26.51 114.78-26.12L114.78-26.12Q114.74-25.88 114.74-25.61 114.74-25.34 114.74-25.1L114.74-25.1Q114.74-24.41 114.78-23.68 114.83-22.95 114.83-22.22L114.83-22.22Q114.83-21.73 114.76-21.29 114.69-20.85 114.69-20.41L114.69-20.41 114.74-19.48Q114.74-18.99 114.78-18.51 114.83-18.02 114.83-17.48L114.83-17.48Q114.83-17.24 114.81-16.99 114.78-16.75 114.74-16.5L114.74-16.5Q114.69-16.26 114.69-15.97 114.69-15.67 114.69-15.43L114.69-15.43Q114.69-14.75 114.74-14.06 114.78-13.38 114.78-12.7L114.78-12.7Q114.78-12.26 114.76-11.84 114.74-11.43 114.74-10.99L114.74-10.99Q114.74-10.11 114.81-9.18 114.88-8.25 114.88-7.37L114.88-7.37Q114.88-6.98 114.78-6.54 114.69-6.1 114.39-5.86ZM139.25-8.35L139.25-8.35Q139.59-7.91 139.66-7.64 139.73-7.37 139.83-7.1 139.93-6.84 140-6.59 140.08-6.35 140.08-6.3L140.08-6.3Q140.08-5.96 139.95-5.74 139.83-5.52 139.59-5.18L139.59-5.18Q137.63-4.44 135.73-3.74 133.83-3.03 131.82-2.34L131.82-2.34Q131.29-2.2 130.85-2.03 130.41-1.86 129.87-1.76L129.87-1.76Q129.77-1.66 129.55-1.59 129.33-1.51 129.04-1.42 128.75-1.32 128.48-1.25 128.21-1.17 128.11-1.17L128.11-1.17Q127.72-1.07 127.26-1.1 126.79-1.12 126.35-1.07L126.35-1.07Q126.11-1.03 126.01-0.83 125.92-0.63 125.79-0.42 125.67-0.2 125.43-0.02 125.18 0.15 124.74 0.15L124.74 0.15Q124.3 0.15 123.86 0.1 123.43 0.05 122.94-0.15L122.94-0.15Q122.84-0.29 122.86-0.51 122.89-0.73 122.79-0.88L122.79-0.88Q122.35-0.93 122.11-0.81 121.86-0.68 121.62-0.63L121.62-0.63Q121.47-0.83 121.4-1.1 121.33-1.37 121.13-1.56L121.13-1.56Q121.08-1.81 121.08-2.05 121.08-2.29 121.08-2.54L121.08-2.54Q121.08-2.88 121.11-3.34 121.13-3.81 121.28-4.05L121.28-4.05Q121.42-6.84 121.42-9.64 121.42-12.45 121.42-15.23L121.42-15.23Q121.42-15.48 121.42-15.94 121.42-16.41 121.4-16.89 121.37-17.38 121.35-17.8 121.33-18.21 121.28-18.41L121.28-18.41Q121.33-18.75 121.33-19.07 121.33-19.38 121.33-19.73L121.33-19.73Q121.33-20.02 121.33-20.26 121.33-20.51 121.23-20.75L121.23-20.75Q121.28-20.95 121.28-21.29L121.28-21.29Q121.28-21.53 121.23-21.78 121.18-22.02 121.18-22.27L121.18-22.27Q121.18-22.66 121.2-23.02 121.23-23.39 121.23-23.78L121.23-23.78Q121.23-25.05 121.11-26.29 120.98-27.54 120.98-28.81L120.98-28.81Q120.98-30.47 120.96-32.13 120.93-33.79 120.89-35.45L120.89-35.45Q121.08-35.94 121.08-36.28L121.08-36.28Q121.76-36.62 122.16-36.52 122.55-36.43 122.94-36.43L122.94-36.43Q123.18-36.43 123.38-36.47 123.57-36.52 123.77-36.62L123.77-36.62Q124.01-36.57 124.18-36.5 124.35-36.43 124.6-36.43L124.6-36.43Q125.33-36.57 125.4-36.47 125.48-36.38 125.62-36.28L125.62-36.28Q125.82-36.33 125.94-36.45 126.06-36.57 126.26-36.57L126.26-36.57Q126.55-36.57 126.7-36.21 126.84-35.84 127.04-35.6L127.04-35.6Q127.04-35.06 127.23-34.62L127.23-34.62Q127.33-32.62 127.31-30.66 127.28-28.71 127.43-26.76L127.43-26.76Q127.48-25.88 127.55-24.93 127.62-23.97 127.62-23.1L127.62-23.1Q127.62-21.63 127.65-20.14 127.67-18.65 127.67-17.14L127.67-17.14Q127.67-16.89 127.7-16.7 127.72-16.5 127.72-16.26L127.72-16.26Q127.72-15.67 127.67-15.14 127.62-14.6 127.62-14.06L127.62-14.06 127.62-10.25Q127.62-9.77 127.6-9.25 127.58-8.74 127.62-8.25L127.62-8.25 127.82-7.67Q128.36-7.86 128.92-8.08 129.48-8.3 130.11-8.4L130.11-8.4Q130.51-8.5 130.85-8.59 131.19-8.69 131.58-8.79L131.58-8.79Q132.26-9.18 132.65-9.33 133.04-9.47 133.43-9.62L133.43-9.62Q134.26-9.91 135.05-10.23 135.83-10.55 136.66-10.84L136.66-10.84Q137.05-10.74 137.29-10.94L137.29-10.94Q137.78-10.84 138.17-10.84L138.17-10.84Q138.71-10.3 138.83-10.01 138.95-9.72 139.2-9.47L139.2-9.47Q139.1-9.23 139.22-9.18 139.34-9.13 139.39-8.94L139.39-8.94Q139.59-8.84 139.44-8.67 139.29-8.5 139.25-8.35ZM162.73-34.91L162.73-34.91Q162.63-34.72 162.66-34.52 162.68-34.33 162.68-34.08L162.68-34.08Q162.58-33.5 162.68-33.5 162.78-33.5 162.78-33.4L162.78-33.4 162.44-32.91Q162.44-32.62 162.31-32.37 162.19-32.13 162.24-31.79L162.24-31.79Q162.09-31.54 161.97-31.3 161.85-31.05 161.61-30.81L161.61-30.81 160.97-30.81Q160.43-30.81 159.82-30.74 159.21-30.66 158.63-30.66L158.63-30.66Q158.53-30.66 158.38-30.69 158.24-30.71 158.09-30.71L158.09-30.71Q157.99-30.71 157.85-30.69 157.7-30.66 157.5-30.66L157.5-30.66Q156.77-30.66 156.06-30.74 155.36-30.81 154.57-30.81L154.57-30.81Q154.38-30.81 154.18-30.81 153.99-30.81 153.74-30.76L153.74-30.76Q153.7-29.93 153.67-29.08 153.65-28.22 153.65-27.34L153.65-27.34Q153.65-27.1 153.6-26.83 153.55-26.56 153.55-26.32L153.55-26.32Q153.5-25.68 153.48-25.1 153.45-24.51 153.45-23.88L153.45-23.88Q153.45-22.51 153.48-21.14 153.5-19.78 153.55-18.36L153.55-18.36Q153.6-17.63 153.65-16.94 153.7-16.26 153.7-15.53L153.7-15.53Q153.7-13.87 153.65-12.23 153.6-10.6 153.6-8.94L153.6-8.94Q153.6-8.4 153.55-7.93 153.5-7.47 153.5-6.93L153.5-6.93Q153.5-5.81 153.55-4.69 153.6-3.56 153.6-2.44L153.6-2.44Q153.6-1.9 153.57-1.37 153.55-0.83 153.55-0.29L153.55-0.29Q153.31 0.1 153.21 0.39 153.11 0.68 152.62 0.68L152.62 0.68Q152.28 0.59 152.3 0.46 152.33 0.34 152.23 0.24L152.23 0.24Q151.79 0.2 151.57 0.32 151.35 0.44 151.06 0.54L151.06 0.54Q150.91 0.49 150.74 0.49 150.57 0.49 150.42 0.49L150.42 0.49Q150.33 0.49 150.23 0.56 150.13 0.63 149.79 0.63L149.79 0.63Q149.5 0.68 149.45 0.54 149.4 0.39 149.15 0.39L149.15 0.39Q148.91 0.54 148.59 0.61 148.28 0.68 147.98 0.68L147.98 0.68Q147.69 0.49 147.71 0.32 147.74 0.15 147.64-0.05L147.64-0.05Q147.59-0.15 147.47-0.32 147.35-0.49 147.25-0.59L147.25-0.59Q147.35-1.27 147.4-1.81 147.45-2.34 147.45-2.98L147.45-2.98Q147.45-4.25 147.35-5.47 147.25-6.69 147.25-7.96L147.25-7.96Q147.25-8.35 147.35-8.79 147.45-9.23 147.45-9.72L147.45-9.72Q147.35-10.11 147.4-10.18 147.45-10.25 147.45-10.35L147.45-10.35Q147.45-10.64 147.42-10.94 147.4-11.23 147.4-11.52L147.4-11.52Q147.4-12.11 147.42-12.7 147.45-13.28 147.45-13.87L147.45-13.87Q147.45-14.11 147.42-14.38 147.4-14.65 147.4-14.89L147.4-14.89Q147.35-15.33 147.37-15.82 147.4-16.31 147.4-16.8L147.4-16.8Q147.4-19.14 147.32-21.44 147.25-23.73 147.25-26.07L147.25-26.07Q147.25-27.2 147.37-28.37 147.49-29.54 147.49-30.71L147.49-30.71Q147.49-30.86 147.4-31.1 147.3-31.35 147.2-31.45L147.2-31.45Q146.96-31.45 146.74-31.47 146.52-31.49 146.27-31.49L146.27-31.49Q145.74-31.49 145.25-31.35L145.25-31.35Q144.32-31.3 143.47-31.23 142.61-31.15 141.73-31.1L141.73-31.1Q141.15-31.15 141.03-31.13 140.9-31.1 140.76-31.1L140.76-31.1Q140.37-31.1 140.17-31.3L140.17-31.3 140.17-31.93Q139.88-32.52 139.93-32.57 139.98-32.62 139.98-32.71L139.98-32.71Q139.98-32.86 139.71-33.03 139.44-33.2 139.44-33.59L139.44-33.59Q139.39-33.98 139.24-34.18 139.1-34.38 139.1-34.57L139.1-34.57Q139.1-34.91 139.24-35.35L139.24-35.35Q139.68-35.6 140.1-35.69 140.51-35.79 141.05-35.94L141.05-35.94Q141.34-36.04 141.59-36.13 141.83-36.23 142.12-36.28L142.12-36.28Q142.47-36.33 142.81-36.33 143.15-36.33 143.49-36.38L143.49-36.38Q144.22-36.52 145.03-36.62 145.83-36.72 146.57-36.72L146.57-36.72Q147.25-36.72 147.93-36.55 148.62-36.38 149.15-36.38L149.15-36.38Q149.94-36.38 150.64-36.28 151.35-36.18 152.13-36.18L152.13-36.18Q152.23-36.18 152.45-36.11 152.67-36.04 152.96-36.04L152.96-36.04 157.7-36.04Q158.09-35.94 158.26-35.99 158.43-36.04 158.58-36.04L158.58-36.04Q158.97-36.04 159.31-35.99 159.65-35.94 160.04-35.94L160.04-35.94Q160.39-35.94 160.58-35.99L160.58-35.99Q160.97-35.94 161.31-35.77 161.65-35.6 162.09-35.6L162.09-35.6Q162.29-35.45 162.39-35.23 162.49-35.01 162.73-34.91ZM180.16-5.62L180.16-5.62Q180.06-5.32 180.06-5.08L180.06-5.08Q180.06-4.79 180.13-4.49 180.21-4.2 180.21-3.91L180.21-3.91Q180.11-3.03 180.06-2.83L180.06-2.83Q179.77-2.59 178.86-2.27 177.96-1.95 176.72-1.64 175.47-1.32 174.03-1 172.59-0.68 171.27-0.39 169.95-0.1 168.85 0.12 167.76 0.34 167.22 0.44L167.22 0.44Q166.97 0.49 166.75 0.56 166.54 0.63 166.29 0.73L166.29 0.73Q166.05 0.78 165.8 0.76 165.56 0.73 165.31 0.83L165.31 0.83Q165.17 0.83 165.05 0.68 164.92 0.54 164.83 0.44L164.83 0.44Q164.83 0.15 164.73 0 164.63-0.15 164.51-0.24 164.39-0.34 164.29-0.46 164.19-0.59 164.19-0.88L164.19-0.88Q164.09-1.27 163.92-1.49 163.75-1.71 163.75-1.9L163.75-1.9Q163.56-2.54 163.56-3.03L163.56-3.03Q163.56-3.27 163.61-3.42 163.65-3.56 163.75-3.71L163.75-3.71Q164.05-3.81 164.19-3.96 164.34-4.1 164.58-4.2L164.58-4.2Q164.88-4.35 165.41-4.47 165.95-4.59 166.58-4.74 167.22-4.88 167.8-5.03 168.39-5.18 168.78-5.32L168.78-5.32Q168.93-5.37 169.07-5.37 169.22-5.37 169.32-5.47L169.32-5.47Q169.22-6.25 169.2-7.03 169.17-7.81 169.07-8.54L169.07-8.54Q169.07-8.89 169.03-9.23 168.98-9.57 168.98-9.86L168.98-9.86 169.03-10.89Q169.03-12.74 168.88-14.6 168.73-16.46 168.73-18.31L168.73-18.31 168.73-19.97Q168.73-20.36 168.71-20.7 168.68-21.04 168.68-21.44L168.68-21.44Q168.68-22.36 168.71-23.22 168.73-24.07 168.73-25L168.73-25 168.73-29.49Q167.66-29.74 166.73-29.47 165.8-29.2 164.83-29.1L164.83-29.1Q164.48-29.44 164.44-29.83L164.44-29.83Q164.05-30.37 163.9-30.52 163.75-30.66 163.56-31.35L163.56-31.35Q163.21-32.03 163-32.2 162.78-32.37 162.78-32.76L162.78-32.76Q162.78-33.01 162.9-33.11 163.02-33.2 163.12-33.45L163.12-33.45Q163.56-33.64 163.63-33.72 163.7-33.79 163.8-33.84L163.8-33.84Q164.29-34.18 164.92-34.33 165.56-34.47 166.14-34.67L166.14-34.67Q166.63-34.81 167.07-35.01 167.51-35.21 168.05-35.35L168.05-35.35Q168.68-35.55 169.32-35.74 169.95-35.94 170.54-36.08L170.54-36.08Q170.93-36.18 171.3-36.16 171.66-36.13 172.05-36.38L172.05-36.38Q172.69-36.28 173.4-36.4 174.1-36.52 174.93-36.72 175.76-36.91 176.55-37.06 177.33-37.21 177.72-37.3L177.72-37.3Q177.96-37.21 178.06-37.06 178.16-36.91 178.35-36.87L178.35-36.87Q178.4-36.72 178.45-36.5 178.5-36.28 178.64-36.18L178.64-36.18Q178.64-35.64 178.89-35.4L178.89-35.4Q178.84-34.91 179.06-34.3 179.28-33.69 179.28-33.15L179.28-33.15Q179.04-32.42 178.47-32.23 177.91-32.03 177.25-31.88 176.59-31.74 175.96-31.62 175.32-31.49 174.93-31.35L174.93-31.35Q174.93-30.66 174.96-29.93 174.98-29.2 174.98-28.47L174.98-28.47Q174.98-27.78 174.96-27.1 174.93-26.42 174.93-25.73L174.93-25.73Q174.93-24.71 174.91-23.63 174.88-22.56 174.88-21.48L174.88-21.48Q174.88-19.97 174.93-18.46 174.98-16.94 175.08-15.43L175.08-15.43Q175.13-15.19 175.13-14.7L175.13-14.7Q175.13-12.74 175.2-10.86 175.28-8.98 175.47-6.98L175.47-6.98Q176.11-6.93 176.45-7.18L176.45-7.18Q176.69-7.18 176.91-7.28 177.13-7.37 177.33-7.47L177.33-7.47Q177.62-7.52 178.13-7.64 178.64-7.76 178.79-7.76L178.79-7.76Q179.23-7.71 179.33-7.76L179.33-7.76Q179.47-7.47 179.77-7.32L179.77-7.32Q179.87-6.88 179.94-6.47 180.01-6.05 180.16-5.62ZM218.83-0.15L218.83-0.15Q218.58 0.1 218.29 0.15 218 0.2 217.7 0.2L217.7 0.2Q216.97 0.54 216.14 0.54L216.14 0.54Q215.61 0.24 215.56 0.34 215.51 0.44 215.36 0.54L215.36 0.54Q214.63 0.88 214.04 0.9 213.46 0.93 213.07 1.17L213.07 1.17Q212.68 0.88 212.65 0.32 212.63-0.24 212.53-0.63L212.53-0.63Q212.28-0.98 212.19-1.49 212.09-2 212.04-2.54 211.99-3.08 211.92-3.59 211.85-4.1 211.65-4.49L211.65-4.49Q211.6-4.74 211.63-4.93 211.65-5.13 211.55-5.37L211.55-5.37Q211.6-6.2 211.5-6.69 211.41-7.18 211.31-7.71L211.31-7.71Q211.26-8.01 211.26-8.37 211.26-8.74 210.97-8.94L210.97-8.94Q211.11-9.62 211.02-9.96 210.92-10.3 210.87-10.6L210.87-10.6Q210.82-10.99 210.82-11.45 210.82-11.91 210.72-12.3L210.72-12.3Q210.43-14.65 210.09-16.99 209.75-19.34 209.45-21.68L209.45-21.68Q209.16-21.44 209.04-20.95 208.92-20.46 208.82-20.07L208.82-20.07Q208.52-19.19 208.28-18.26 208.04-17.33 207.79-16.46L207.79-16.46Q207.69-16.06 207.62-15.55 207.55-15.04 207.4-14.65L207.4-14.65Q206.91-13.23 206.55-12.21 206.18-11.18 205.84-10.11L205.84-10.11Q205.74-9.52 205.64-8.98 205.55-8.45 205.45-7.91L205.45-7.91Q205.4-7.62 205.3-7.08 205.2-6.54 205.11-6.3L205.11-6.3Q205.01-6.05 204.94-5.96 204.86-5.86 204.91-5.62L204.91-5.62Q204.42-4.88 204.25-4 204.08-3.13 203.64-2.29L203.64-2.29Q203.64-1.71 203.2-1.27L203.2-1.27Q202.96-1.22 202.74-1.17 202.52-1.12 202.27-0.98L202.27-0.98Q202.03-1.07 201.71-1.1 201.4-1.12 201.1-1.12L201.1-1.12Q200.86-1.17 200.66-1.29 200.47-1.42 200.22-1.46L200.22-1.46Q199.98-1.76 199.69-1.98 199.39-2.2 199.1-2.44L199.1-2.44Q198.81-3.17 198.56-3.42L198.56-3.42Q198.42-3.96 198.17-4.42 197.93-4.88 197.83-5.47L197.83-5.47Q197.69-6.01 197.47-6.47 197.25-6.93 197-7.47L197-7.47Q196.9-7.81 196.78-8.13 196.66-8.45 196.51-8.79L196.51-8.79Q196.46-9.18 196.24-9.77 196.02-10.35 195.93-10.79L195.93-10.79Q195.93-10.84 195.76-11.3 195.59-11.77 195.41-12.3 195.24-12.84 195.07-13.28 194.9-13.72 194.85-13.77L194.85-13.77Q194.76-14.01 194.68-14.23 194.61-14.45 194.51-14.75L194.51-14.75Q194.32-15.38 194.02-16.04 193.73-16.7 193.44-17.29L193.44-17.29Q193.19-17.77 193.1-18.24 193-18.7 192.85-19.14L192.85-19.14Q192.75-19.38 192.68-19.58 192.61-19.78 192.51-20.02L192.51-20.02Q192.41-20.31 192.31-20.63 192.22-20.95 192.12-21.29L192.12-21.29Q191.87-21.19 191.9-20.87 191.92-20.56 191.87-20.31L191.87-20.31Q191.78-19.78 191.78-19.26 191.78-18.75 191.73-18.21L191.73-18.21Q191.63-17.63 191.53-17.09 191.44-16.55 191.39-16.02L191.39-16.02Q191.39-14.7 191.24-13.38L191.24-13.38Q191.14-12.21 191-11.01 190.85-9.81 190.8-8.54L190.8-8.54Q190.8-7.62 190.61-6.71 190.41-5.81 190.51-4.83L190.51-4.83Q190.41-4.64 190.41-4.54 190.41-4.44 190.41-4.25L190.41-4.25Q190.41-4 190.39-3.71 190.36-3.42 190.36-3.17L190.36-3.17Q190.36-2.73 190.46-2.59L190.46-2.59Q190.31-2.15 190.31-1.64 190.31-1.12 190.31-0.63L190.31-0.63Q190.21-0.44 190.19-0.24 190.17-0.05 190.02 0.15L190.02 0.15Q190.07 0.98 189.53 0.98L189.53 0.98Q189.38 0.98 189.21 0.9 189.04 0.83 188.94 0.68L188.94 0.68Q188.41 0.73 188.33 0.44 188.26 0.15 188.02 0.2L188.02 0.2Q187.43 0.44 187.36 0.34 187.28 0.24 187.04 0.29L187.04 0.29Q186.65-0.1 186.53-0.05 186.41 0 186.31 0L186.31 0Q185.87-0.15 185.82-0.07 185.77 0 185.62 0L185.62 0Q185.38-0.24 184.97-0.24 184.55-0.24 184.26-0.29L184.26-0.29Q184.21-0.49 184.18-0.66 184.16-0.83 184.16-1.07L184.16-1.07Q184.16-1.37 184.18-1.64 184.21-1.9 184.21-2.2L184.21-2.2Q184.21-2.44 184.18-2.71 184.16-2.98 184.16-3.32L184.16-3.32Q184.16-3.66 184.21-3.98 184.26-4.3 184.26-4.69L184.26-4.69Q184.26-4.83 184.21-4.96 184.16-5.08 184.16-5.27L184.16-5.27Q184.45-5.91 184.43-6.27 184.4-6.64 184.45-6.98L184.45-6.98Q184.55-7.81 184.62-8.62 184.7-9.42 184.79-10.25L184.79-10.25Q184.79-11.62 184.87-12.52 184.94-13.43 185.09-14.36L185.09-14.36Q185.19-14.79 185.26-15.19 185.33-15.58 185.43-16.02L185.43-16.02Q185.53-16.75 185.55-17.55 185.58-18.36 185.67-19.14L185.67-19.14Q185.77-20.36 185.92-21.56 186.06-22.75 186.16-23.93L186.16-23.93Q186.26-24.85 186.38-25.76 186.5-26.66 186.5-27.49L186.5-27.49Q186.5-27.93 186.63-28.61 186.75-29.3 186.8-29.79L186.8-29.79Q186.89-30.96 186.97-32.08 187.04-33.2 187.04-34.33L187.04-34.33 187.04-34.86Q187.04-34.96 187.14-35.06 187.24-35.16 187.24-35.4L187.24-35.4Q187.24-35.84 187.46-36.01 187.68-36.18 187.82-36.57L187.82-36.57Q188.07-36.57 188.38-36.52 188.7-36.47 188.85-36.23L188.85-36.23Q189.19-36.33 189.53-36.33 189.87-36.33 190.12-36.57L190.12-36.57Q190.41-36.57 190.56-36.43 190.7-36.28 190.95-36.18L190.95-36.18Q191.14-36.28 191.34-36.35 191.53-36.43 191.73-36.52L191.73-36.52Q191.87-36.43 191.95-36.3 192.02-36.18 192.17-36.13L192.17-36.13Q192.9-36.33 193.14-36.18L193.14-36.18Q193.24-35.99 193.27-35.79 193.29-35.6 193.34-35.4L193.34-35.4Q193.83-34.91 193.97-34.3 194.12-33.69 194.51-33.2L194.51-33.2Q194.61-32.91 194.73-32.62 194.85-32.32 194.95-31.93L194.95-31.93 195.1-31.35Q195.29-30.86 195.59-30.18L195.59-30.18Q195.83-29.25 196.02-28.27 196.22-27.29 196.66-26.46L196.66-26.46Q196.71-26.17 196.83-25.76 196.95-25.34 197.05-25.05L197.05-25.05Q197.39-24.22 197.76-23.41 198.12-22.61 198.42-21.68L198.42-21.68Q198.71-20.75 198.93-19.78 199.15-18.8 199.49-17.87L199.49-17.87Q199.78-16.99 199.93-16.6 200.08-16.21 200.32-15.82L200.32-15.82Q200.32-15.67 200.4-15.33 200.47-14.99 200.61-14.62 200.76-14.26 200.91-13.94 201.05-13.62 201.2-13.57L201.2-13.57Q201.35-13.67 201.37-13.87 201.4-14.06 201.54-14.21L201.54-14.21Q201.59-14.75 201.71-15.53 201.84-16.31 202.08-16.8L202.08-16.8Q202.08-17.04 202.2-17.7 202.32-18.36 202.52-19.12 202.71-19.87 202.89-20.51 203.06-21.14 203.2-21.29L203.2-21.29Q203.3-21.92 203.37-22.07 203.45-22.22 203.54-22.31L203.54-22.31Q203.59-22.71 203.74-23.05 203.89-23.39 203.94-23.78L203.94-23.78Q204.03-24.61 204.18-25.15 204.33-25.68 204.57-26.46L204.57-26.46Q204.77-27.15 204.94-27.86 205.11-28.56 205.35-29.25L205.35-29.25Q205.94-31.1 206.4-32.54 206.86-33.98 207.55-35.35L207.55-35.35Q207.69-35.79 207.79-35.89 207.89-35.99 207.99-36.08L207.99-36.08Q208.38-36.23 208.79-36.23 209.21-36.23 209.65-36.18L209.65-36.18Q210.14-36.38 210.38-36.62L210.38-36.62Q210.58-36.38 210.97-36.38L210.97-36.38Q211.45-36.38 211.65-36.67L211.65-36.67Q211.85-36.57 211.97-36.62 212.09-36.67 212.33-36.57L212.33-36.57Q212.43-36.67 212.58-36.79 212.72-36.91 212.87-36.91L212.87-36.91Q213.26-36.43 213.48-36.16 213.7-35.89 213.8-35.55L213.8-35.55Q213.94-35.11 213.97-34.59 213.99-34.08 214.24-33.64L214.24-33.64Q214.19-33.01 214.31-31.71 214.43-30.42 214.6-28.98 214.77-27.54 214.97-26.32 215.17-25.1 215.31-24.8L215.31-24.8Q215.26-24.17 215.36-23.73 215.46-23.29 215.46-22.85L215.46-22.85Q215.46-22.71 215.51-22.24 215.56-21.78 215.61-21.26 215.65-20.75 215.73-20.29 215.8-19.82 215.85-19.63L215.85-19.63Q215.85-18.75 216.14-18.26L216.14-18.26Q216.39-17.04 216.56-15.82 216.73-14.6 216.87-13.33L216.87-13.33Q216.97-12.7 217-12.11 217.02-11.52 217.12-10.89L217.12-10.89Q217.17-10.64 217.24-10.4 217.31-10.16 217.36-9.91L217.36-9.91Q217.46-9.42 217.51-8.98 217.56-8.54 217.66-8.11L217.66-8.11Q217.7-7.86 217.8-7.59 217.9-7.32 217.8-7.03L217.8-7.03Q217.9-6.69 217.88-6.3 217.85-5.91 218.05-5.62L218.05-5.62Q218.05-4.59 218.19-3.81L218.19-3.81Q218.24-3.22 218.49-2.64L218.49-2.64Q218.58-2.05 218.66-1.42 218.73-0.78 218.83-0.15ZM225.27-0.63L224.93-0.78Q224.78-0.68 224.64-0.59 224.49-0.49 224.34-0.39L224.34-0.39Q223.81-0.1 223.37-0.07 222.93-0.05 222.39 0.44L222.39 0.44Q222.19 0.2 222.1 0.2 222 0.2 221.75 0.2L221.75 0.2Q221.12 0.2 221.02-0.15L221.02-0.15Q220.83-0.1 220.41 0.1 220 0.29 219.8 0.39L219.8 0.39Q220.24-0.24 220.39-0.59 220.53-0.93 220.56-1.22 220.58-1.51 220.61-1.83 220.63-2.15 220.83-2.73L220.83-2.73Q220.92-2.93 220.97-3.13 221.02-3.32 221.12-3.56L221.12-3.56Q221.36-4.3 221.54-5.22 221.71-6.15 222.1-6.84L222.1-6.84Q222.1-7.67 222.46-8.4 222.83-9.13 223.07-9.91L223.07-9.91Q223.17-10.21 223.34-10.5 223.51-10.79 223.61-11.08L223.61-11.08Q223.81-11.57 223.93-12.04 224.05-12.5 224.2-12.94L224.2-12.94Q224.59-14.36 224.98-15.75 225.37-17.14 225.71-18.55L225.71-18.55Q225.76-18.8 225.83-19.09 225.91-19.38 226-19.63L226-19.63Q226.25-20.36 226.32-21.12 226.39-21.88 226.78-22.56L226.78-22.56Q226.74-22.9 226.81-23.19 226.88-23.49 226.98-23.83 227.08-24.17 227.17-24.46 227.27-24.76 227.32-24.9L227.32-24.9Q227.57-25.54 227.69-26.05 227.81-26.56 228.2-27.15L228.2-27.15Q228.2-27.15 228.35-27.66 228.49-28.17 228.69-28.81 228.88-29.44 229.03-30 229.18-30.57 229.18-30.66L229.18-30.66Q229.27-31.05 229.35-31.4 229.42-31.74 229.52-32.13L229.52-32.13Q229.62-32.37 229.71-32.54 229.81-32.71 229.91-32.96L229.91-32.96Q230.06-33.5 230.2-34.28 230.35-35.06 230.59-35.5L230.59-35.5Q230.74-35.84 231.15-36.06 231.57-36.28 231.86-36.52L231.86-36.52Q232.74-36.43 233.16-36.62 233.57-36.82 233.96-37.11L233.96-37.11Q234.21-37.06 234.43-36.99 234.65-36.91 234.89-36.91L234.89-36.91Q235.82-35.89 236.18-34.81 236.55-33.74 236.89-32.67L236.89-32.67Q237.04-32.13 237.18-31.62 237.33-31.1 237.53-30.62L237.53-30.62Q237.58-30.47 237.67-30.3 237.77-30.13 237.87-29.93L237.87-29.93Q238.11-29.54 238.28-29.1 238.45-28.66 238.6-28.22L238.6-28.22Q238.89-27.88 239.04-27.42 239.19-26.95 239.31-26.49 239.43-26.03 239.58-25.61 239.72-25.2 240.02-24.9L240.02-24.9Q240.11-24.37 240.36-23.85 240.6-23.34 240.7-22.75L240.7-22.75Q240.99-22.36 241.38-21.26 241.77-20.17 242.17-18.9 242.56-17.63 242.9-16.46 243.24-15.28 243.39-14.79L243.39-14.79Q243.48-14.4 243.78-13.79 244.07-13.18 244.31-12.7L244.31-12.7Q244.51-12.16 244.73-11.57 244.95-10.99 245.09-10.45L245.09-10.45Q245.19-9.91 245.31-9.42 245.44-8.94 245.58-8.4L245.58-8.4Q245.68-8.06 245.88-7.79 246.07-7.52 246.17-7.13L246.17-7.13Q246.36-6.74 246.44-6.4 246.51-6.05 246.75-5.66L246.75-5.66Q246.71-5.13 246.8-4.98 246.9-4.83 247-4.64L247-4.64Q247.19-3.61 247.44-3 247.68-2.39 247.68-1.71L247.68-1.71Q247.68-1.12 247.46-0.98 247.24-0.83 246.9-0.49L246.9-0.49Q246.51-0.15 246.24 0.05 245.97 0.24 245.44 0.24L245.44 0.24Q244.85 0.2 244.73 0.42 244.61 0.63 244.56 0.73L244.56 0.73Q243.97 0.68 243.8 0.71 243.63 0.73 243.46 0.73 243.29 0.73 243.12 0.81 242.95 0.88 242.75 1.12L242.75 1.12Q242.41 0.73 242.09 0.42 241.77 0.1 241.53-0.29L241.53-0.29Q241.53-1.12 241.31-2.25 241.09-3.37 240.85-4L240.85-4Q240.36-5.27 239.94-6.49 239.53-7.71 239.14-8.98L239.14-8.98Q238.99-9.52 238.82-9.96 238.65-10.4 238.45-10.89L238.45-10.89Q238.55-10.5 238.53-10.08 238.5-9.67 238.26-9.28L238.26-9.28Q238.16-9.18 237.97-9.03 237.77-8.89 237.77-8.79L237.77-8.79Q237.18-8.3 236.75-7.86L236.75-7.86Q236.79-6.98 236.5-6.64 236.21-6.3 235.87-6.01L235.87-6.01Q235.04-5.96 234.84-6.1 234.65-6.25 234.3-6.3L234.3-6.3Q234.11-6.35 233.91-6.32 233.72-6.3 233.52-6.3L233.52-6.3Q233.13-6.3 232.79-6.49L232.79-6.49Q232.64-6.59 232.57-6.69 232.5-6.79 232.4-6.88L232.4-6.88Q232.01-7.28 231.5-7.54 230.98-7.81 230.5-8.01L230.5-8.01Q230.1-8.35 229.69-8.72 229.27-9.08 228.83-9.33L228.83-9.33Q228.44-8.4 228.22-7.69 228-6.98 227.71-6.3L227.71-6.3Q227.17-4.64 226.83-3.39 226.49-2.15 226.05-0.88L226.05-0.88Q225.86-0.83 225.69-0.73 225.51-0.63 225.27-0.63L225.27-0.63ZM229.52-11.18L229.71-11.18Q230.1-11.87 230.42-11.94 230.74-12.01 230.98-12.3L230.98-12.3Q231.08-12.4 231.2-12.55 231.33-12.7 231.47-12.84L231.47-12.84Q231.62-12.94 231.81-13.04 232.01-13.13 232.16-13.28L232.16-13.28Q232.55-13.62 232.81-13.87 233.08-14.11 233.62-14.11L233.62-14.11Q234.45-14.11 234.99-13.7 235.52-13.28 236.31-13.13L236.31-13.13Q236.4-12.84 236.94-12.72 237.48-12.6 237.77-12.4L237.77-12.4Q237.28-13.62 237.01-14.87 236.75-16.11 236.35-17.33L236.35-17.33Q236.06-18.41 235.67-19.46 235.28-20.51 234.89-21.48L234.89-21.48Q234.55-22.46 234.3-23.39 234.06-24.32 233.67-25.2L233.67-25.2Q233.28-24.32 232.89-23.05 232.5-21.78 232.3-20.8L232.3-20.8Q232.3-20.36 232.25-20.12L232.25-20.12Q232.16-19.78 232.06-19.51 231.96-19.24 231.86-18.95L231.86-18.95Q231.23-17.04 230.71-15.09 230.2-13.13 229.52-11.18L229.52-11.18ZM270.34-34.91L270.34-34.91Q270.24-34.72 270.26-34.52 270.29-34.33 270.29-34.08L270.29-34.08Q270.19-33.5 270.29-33.5 270.39-33.5 270.39-33.4L270.39-33.4 270.04-32.91Q270.04-32.62 269.92-32.37 269.8-32.13 269.85-31.79L269.85-31.79Q269.7-31.54 269.58-31.3 269.46-31.05 269.21-30.81L269.21-30.81 268.58-30.81Q268.04-30.81 267.43-30.74 266.82-30.66 266.23-30.66L266.23-30.66Q266.14-30.66 265.99-30.69 265.84-30.71 265.7-30.71L265.7-30.71Q265.6-30.71 265.45-30.69 265.31-30.66 265.11-30.66L265.11-30.66Q264.38-30.66 263.67-30.74 262.96-30.81 262.18-30.81L262.18-30.81Q261.99-30.81 261.79-30.81 261.6-30.81 261.35-30.76L261.35-30.76Q261.3-29.93 261.28-29.08 261.25-28.22 261.25-27.34L261.25-27.34Q261.25-27.1 261.21-26.83 261.16-26.56 261.16-26.32L261.16-26.32Q261.11-25.68 261.08-25.1 261.06-24.51 261.06-23.88L261.06-23.88Q261.06-22.51 261.08-21.14 261.11-19.78 261.16-18.36L261.16-18.36Q261.21-17.63 261.25-16.94 261.3-16.26 261.3-15.53L261.3-15.53Q261.3-13.87 261.25-12.23 261.21-10.6 261.21-8.94L261.21-8.94Q261.21-8.4 261.16-7.93 261.11-7.47 261.11-6.93L261.11-6.93Q261.11-5.81 261.16-4.69 261.21-3.56 261.21-2.44L261.21-2.44Q261.21-1.9 261.18-1.37 261.16-0.83 261.16-0.29L261.16-0.29Q260.91 0.1 260.81 0.39 260.72 0.68 260.23 0.68L260.23 0.68Q259.89 0.59 259.91 0.46 259.94 0.34 259.84 0.24L259.84 0.24Q259.4 0.2 259.18 0.32 258.96 0.44 258.67 0.54L258.67 0.54Q258.52 0.49 258.35 0.49 258.18 0.49 258.03 0.49L258.03 0.49Q257.93 0.49 257.84 0.56 257.74 0.63 257.4 0.63L257.4 0.63Q257.1 0.68 257.06 0.54 257.01 0.39 256.76 0.39L256.76 0.39Q256.52 0.54 256.2 0.61 255.88 0.68 255.59 0.68L255.59 0.68Q255.3 0.49 255.32 0.32 255.35 0.15 255.25-0.05L255.25-0.05Q255.2-0.15 255.08-0.32 254.96-0.49 254.86-0.59L254.86-0.59Q254.96-1.27 255-1.81 255.05-2.34 255.05-2.98L255.05-2.98Q255.05-4.25 254.96-5.47 254.86-6.69 254.86-7.96L254.86-7.96Q254.86-8.35 254.96-8.79 255.05-9.23 255.05-9.72L255.05-9.72Q254.96-10.11 255-10.18 255.05-10.25 255.05-10.35L255.05-10.35Q255.05-10.64 255.03-10.94 255-11.23 255-11.52L255-11.52Q255-12.11 255.03-12.7 255.05-13.28 255.05-13.87L255.05-13.87Q255.05-14.11 255.03-14.38 255-14.65 255-14.89L255-14.89Q254.96-15.33 254.98-15.82 255-16.31 255-16.8L255-16.8Q255-19.14 254.93-21.44 254.86-23.73 254.86-26.07L254.86-26.07Q254.86-27.2 254.98-28.37 255.1-29.54 255.1-30.71L255.1-30.71Q255.1-30.86 255-31.1 254.91-31.35 254.81-31.45L254.81-31.45Q254.56-31.45 254.35-31.47 254.13-31.49 253.88-31.49L253.88-31.49Q253.34-31.49 252.86-31.35L252.86-31.35Q251.93-31.3 251.07-31.23 250.22-31.15 249.34-31.1L249.34-31.1Q248.75-31.15 248.63-31.13 248.51-31.1 248.36-31.1L248.36-31.1Q247.97-31.1 247.78-31.3L247.78-31.3 247.78-31.93Q247.48-32.52 247.53-32.57 247.58-32.62 247.58-32.71L247.58-32.71Q247.58-32.86 247.31-33.03 247.05-33.2 247.05-33.59L247.05-33.59Q247-33.98 246.85-34.18 246.7-34.38 246.7-34.57L246.7-34.57Q246.7-34.91 246.85-35.35L246.85-35.35Q247.29-35.6 247.7-35.69 248.12-35.79 248.66-35.94L248.66-35.94Q248.95-36.04 249.19-36.13 249.44-36.23 249.73-36.28L249.73-36.28Q250.07-36.33 250.41-36.33 250.76-36.33 251.1-36.38L251.1-36.38Q251.83-36.52 252.64-36.62 253.44-36.72 254.17-36.72L254.17-36.72Q254.86-36.72 255.54-36.55 256.23-36.38 256.76-36.38L256.76-36.38Q257.54-36.38 258.25-36.28 258.96-36.18 259.74-36.18L259.74-36.18Q259.84-36.18 260.06-36.11 260.28-36.04 260.57-36.04L260.57-36.04 265.31-36.04Q265.7-35.94 265.87-35.99 266.04-36.04 266.19-36.04L266.19-36.04Q266.58-36.04 266.92-35.99 267.26-35.94 267.65-35.94L267.65-35.94Q267.99-35.94 268.19-35.99L268.19-35.99Q268.58-35.94 268.92-35.77 269.26-35.6 269.7-35.6L269.7-35.6Q269.9-35.45 269.99-35.23 270.09-35.01 270.34-34.91ZM289.77-6.84L289.77-6.84Q290.16-6.2 290.35-5.62 290.55-5.03 290.55-4.79L290.55-4.79Q290.55-4.44 290.43-4.22 290.3-4 290.11-3.76L290.11-3.76Q288.16-2.93 286.23-2.22 284.3-1.51 282.3-0.83L282.3-0.83Q281.81-0.68 281.34-0.51 280.88-0.34 280.34-0.24L280.34-0.24Q280.25-0.15 280-0.05 279.76 0.05 279.44 0.15 279.12 0.24 278.83 0.32 278.54 0.39 278.44 0.39L278.44 0.39Q278.34 0.15 278.24 0.1 278.15 0.05 278.05 0L278.05 0Q277.8 0 277.73 0.17 277.66 0.34 277.41 0.44L277.41 0.44Q277.17 0.44 276.97 0.46 276.78 0.49 276.63 0.39L276.63 0.39Q276.24 0.49 275.92 0.73 275.61 0.98 275.22 1.07L275.22 1.07Q274.48 0.88 274.31 0.9 274.14 0.93 273.95 0.98L273.95 0.98Q273.61 0.68 273.63 0.15 273.65-0.39 273.36-0.73L273.36-0.73Q273.36-1.37 273.26-1.44 273.17-1.51 273.17-1.61L273.17-1.61Q273.17-1.95 273.21-2.25 273.26-2.54 273.17-2.88L273.17-2.88Q273.36-3.71 273.31-4.49 273.26-5.27 273.36-6.05L273.36-6.05Q273.36-6.3 273.39-6.52 273.41-6.74 273.41-6.98L273.41-6.98Q273.41-7.71 273.51-7.89 273.61-8.06 273.61-8.3L273.61-8.3Q273.61-8.64 273.58-8.96 273.56-9.28 273.56-9.67L273.56-9.67Q273.56-10.35 273.58-11.01 273.61-11.67 273.61-12.4L273.61-12.4Q273.61-14.26 273.36-16.11 273.12-17.97 273.12-19.82L273.12-19.82Q273.12-22.07 272.87-24.27 272.63-26.46 272.63-28.71L272.63-28.71Q272.63-29.1 272.63-29.81 272.63-30.52 272.63-31.27 272.63-32.03 272.65-32.71 272.68-33.4 272.73-33.69L272.73-33.69Q272.73-33.74 273.02-33.84 273.31-33.94 273.41-33.94L273.41-33.94Q273.65-33.94 273.8-33.81 273.95-33.69 274.14-33.59L274.14-33.59Q275.02-33.69 275.19-33.76 275.36-33.84 275.46-33.84L275.46-33.84Q275.75-33.84 275.92-33.69 276.1-33.54 276.19-33.54L276.19-33.54Q277.02-33.74 277.1-33.59 277.17-33.45 277.41-33.45L277.41-33.45Q278.05-33.64 278.2-33.59 278.34-33.54 278.49-33.54L278.49-33.54Q278.73-33.54 279.03-33.72 279.32-33.89 279.56-33.98L279.56-33.98Q280.39-34.23 280.93-34.47L280.93-34.47Q281.66-34.91 282.03-35.06 282.39-35.21 282.79-35.4L282.79-35.4Q283.62-35.74 284.37-36.11 285.13-36.47 285.96-36.87L285.96-36.87Q286.11-36.87 286.28-36.89 286.45-36.91 286.54-37.01L286.54-37.01Q286.69-36.96 286.86-36.96 287.03-36.96 287.18-36.96L287.18-36.96Q287.67-36.77 287.81-36.72L287.81-36.72Q288.01-36.43 288.18-36.16 288.35-35.89 288.6-35.64L288.6-35.64Q288.84-35.21 288.99-35.21L288.99-35.21Q288.99-35.06 288.84-34.89 288.69-34.72 288.69-34.57L288.69-34.57Q289.08-33.89 289.33-33.3 289.57-32.71 289.57-32.47L289.57-32.47Q289.57-32.13 289.47-31.91 289.38-31.69 289.23-31.45L289.23-31.45Q287.37-30.57 285.49-29.71 283.62-28.86 281.66-28.03L281.66-28.03Q281.17-27.83 280.73-27.61 280.29-27.39 279.76-27.29L279.76-27.29Q279.66-27.2 279.32-27.12 278.98-27.05 278.78-27.05L278.78-27.05Q278.88-26.22 278.9-25.42 278.93-24.61 278.98-23.78L278.98-23.78Q279.03-23.1 279.15-22.34 279.27-21.58 279.37-20.85L279.37-20.85Q280.98-21.53 282.57-22.22 284.15-22.9 285.76-23.58L285.76-23.58Q286.06-23.54 286.37-23.49 286.69-23.44 286.98-23.34L286.98-23.34Q287.08-23.24 287.18-23.1 287.28-22.95 287.42-22.85L287.42-22.85Q287.37-22.61 287.74-22.12 288.11-21.63 288.11-21.39L288.11-21.39Q288.11-21 288.2-20.92 288.3-20.85 288.4-20.51L288.4-20.51Q288.45-20.02 288.4-19.97L288.4-19.97Q288.64-19.73 288.79-19.48 288.94-19.24 288.94-18.9L288.94-18.9Q288.25-18.07 287.57-17.8 286.89-17.53 286.2-17.24L286.2-17.24Q285.96-17.14 285.69-16.97 285.42-16.8 285.18-16.7L285.18-16.7Q284.79-16.55 284.42-16.43 284.05-16.31 283.66-16.11L283.66-16.11Q283.03-15.77 282.37-15.36 281.71-14.94 281.03-14.79L281.03-14.79Q280.49-14.65 280.32-14.48 280.15-14.31 279.76-14.01L279.76-14.01 279.76-12.7 279.76-10.25Q279.76-9.77 279.76-9.25 279.76-8.74 279.71-8.2L279.71-8.2Q279.61-7.71 279.61-7.37L279.61-7.37 279.61-6.59Q279.86-6.69 280.1-6.76 280.34-6.84 280.59-6.93L280.59-6.93Q280.78-6.98 280.95-6.98 281.12-6.98 281.32-7.08L281.32-7.08Q281.56-7.13 281.71-7.18 281.86-7.23 282.05-7.32L282.05-7.32Q282.79-7.71 283.18-7.84 283.57-7.96 283.96-8.11L283.96-8.11Q284.79-8.4 285.57-8.72 286.35-9.03 287.13-9.33L287.13-9.33Q287.62-9.23 287.81-9.47L287.81-9.47Q288.06-9.42 288.23-9.38 288.4-9.33 288.64-9.33L288.64-9.33Q289.23-8.79 289.38-8.5 289.52-8.2 289.77-7.96L289.77-7.96Q290.01-7.52 290.11-7.52L290.11-7.52Q290.11-7.42 289.96-7.2 289.82-6.98 289.77-6.84Z" opacity="1" transform="matrix(1,0,0,1,0,0)" fill="#ffffff" class="wordmark-text-0" data-fill-palette-color="primary" id="text-0"></path></svg></g></svg></g><g transform="matrix(1,0,0,1,0,34.4327761635937)"><svg viewBox="0 0 208.00000000000003 17.21532953402615" height="17.21532953402615" width="208.00000000000003"><g transform="matrix(1,0,0,1,0,0)"><svg width="208.00000000000003" viewBox="-0.25 -34.3 549.14 45.449999999999996" height="17.21532953402615" data-palette-color="#000000"><path d="M-0.25 0L12.75-33.85 17.45-33.85 30.5 0 24.15 0 21.05-8.85 8.85-8.85 5.65 0-0.25 0ZM10.45-13.25L19.5-13.25Q17.9-17.75 16.75-21.43 15.6-25.1 15-27.2L15-27.2Q14.3-24.95 13.15-21.3 12-17.65 10.45-13.25L10.45-13.25ZM62.41-16.15L62.26-33.85 68.21-33.85 68.21 0.05 63.26 0.05 51.86-17.75Q50.91-19.2 49.79-21.03 48.66-22.85 47.66-24.4L47.66-24.4Q47.81-22.8 47.94-21.05 48.06-19.3 48.06-17.7L48.06-17.7 48.21 0 42.26 0 42.26-33.95 46.91-33.95 58.66-16.35Q59.66-14.9 60.69-13.28 61.71-11.65 62.71-10.15L62.71-10.15Q62.61-11.75 62.51-13.38 62.41-15 62.41-16.15L62.41-16.15ZM90.73 0L90.73-12.95 80.23-33.85 86.68-33.85 93.78-18.5 101.03-33.85 107.33-33.85 96.68-12.7 96.68 0 90.73 0ZM116.84-33.85L140.44-33.85 139.69-29.35 131.29-29.35 131.29 0 125.39 0 125.39-29.35 116.84-29.35 116.84-33.85ZM172.9 0L172.9-15.4 158.95-15.4 158.95 0 153 0 153-33.85 158.95-33.85 158.95-19.75 172.9-19.75 172.9-33.85 178.85-33.85 178.85 0 172.9 0ZM194.36 0L194.36-33.85 200.31-33.85 200.31 0 194.36 0ZM235.98-16.15L235.83-33.85 241.78-33.85 241.78 0.05 236.83 0.05 225.43-17.75Q224.48-19.2 223.35-21.03 222.23-22.85 221.23-24.4L221.23-24.4Q221.38-22.8 221.5-21.05 221.63-19.3 221.63-17.7L221.63-17.7 221.78 0 215.83 0 215.83-33.95 220.48-33.95 232.23-16.35Q233.23-14.9 234.25-13.28 235.28-11.65 236.28-10.15L236.28-10.15Q236.18-11.75 236.08-13.38 235.98-15 235.98-16.15L235.98-16.15ZM272.64 11.15L270.34 7.2Q272.59 6.1 273.79 4.78 274.99 3.45 275.56 2.08 276.14 0.7 276.21-0.68 276.29-2.05 276.29-3.25L276.29-3.25 276.29-3.95Q275.14-1.85 272.94-0.73 270.74 0.4 267.84 0.4L267.84 0.4Q264.69 0.4 262.44-0.8 260.19-2 258.74-4.23 257.29-6.45 256.61-9.55 255.94-12.65 255.94-16.45L255.94-16.45Q255.94-20.35 256.84-23.63 257.74-26.9 259.56-29.28 261.39-31.65 264.16-32.98 266.94-34.3 270.74-34.3L270.74-34.3Q274.09-34.3 276.36-33.2 278.64-32.1 279.94-30.75L279.94-30.75 277.04-26.95Q275.74-28.25 273.86-28.98 271.99-29.7 270.04-29.7L270.04-29.7Q267.89-29.7 266.44-28.7 264.99-27.7 264.09-25.98 263.19-24.25 262.79-21.93 262.39-19.6 262.39-16.95L262.39-16.95Q262.39-14.1 262.76-11.78 263.14-9.45 263.91-7.78 264.69-6.1 265.94-5.18 267.19-4.25 268.99-4.25L268.99-4.25Q270.14-4.25 271.34-4.78 272.54-5.3 273.51-6.28 274.49-7.25 275.09-8.65 275.69-10.05 275.69-11.85L275.69-11.85 275.69-16.4 281.54-16.4 281.54-1.35Q281.54 1.7 280.71 3.75 279.89 5.8 278.61 7.18 277.34 8.55 275.76 9.47 274.19 10.4 272.64 11.15L272.64 11.15ZM317.31 0L317.31-33.85 337.41-33.85 337.41-29.35 323.26-29.35 323.26-19.6 334.91-19.6 334.16-15.1 323.26-15.1 323.26 0 317.31 0ZM361.78-34.3Q365.53-34.3 368.18-33.1 370.83-31.9 372.55-29.7 374.28-27.5 375.08-24.33 375.88-21.15 375.88-17.2L375.88-17.2Q375.88-13.3 375-10.08 374.13-6.85 372.3-4.55 370.48-2.25 367.7-0.98 364.93 0.3 361.13 0.3L361.13 0.3Q357.38 0.3 354.7-0.83 352.03-1.95 350.3-4.13 348.58-6.3 347.78-9.4 346.98-12.5 346.98-16.5L346.98-16.5Q346.98-20.4 347.85-23.68 348.73-26.95 350.55-29.33 352.38-31.7 355.18-33 357.98-34.3 361.78-34.3L361.78-34.3ZM361.08-29.7Q358.88-29.7 357.43-28.73 355.98-27.75 355.08-26.05 354.18-24.35 353.8-22.05 353.43-19.75 353.43-17.05L353.43-17.05Q353.43-14.5 353.78-12.2 354.13-9.9 355.05-8.15 355.98-6.4 357.6-5.35 359.23-4.3 361.83-4.3L361.83-4.3Q363.98-4.3 365.45-5.25 366.93-6.2 367.83-7.85 368.73-9.5 369.1-11.78 369.48-14.05 369.48-16.7L369.48-16.7Q369.48-19.25 369.13-21.6 368.78-23.95 367.85-25.75 366.93-27.55 365.3-28.63 363.68-29.7 361.08-29.7L361.08-29.7ZM390.14 0L390.14-33.85Q390.49-33.85 391.74-33.88 392.99-33.9 394.54-33.9 396.09-33.9 397.64-33.93 399.19-33.95 400.19-33.95L400.19-33.95Q406.39-33.95 409.24-31.53 412.09-29.1 412.09-24.7L412.09-24.7Q412.09-21.8 410.64-19.55 409.19-17.3 405.89-16.3L405.89-16.3Q407.29-15.5 408.39-14.1 409.49-12.7 410.54-10.68 411.59-8.65 412.69-5.98 413.79-3.3 415.24 0L415.24 0 408.79 0Q407.09-3.95 405.81-6.75 404.54-9.55 403.34-11.3 402.14-13.05 400.76-13.85 399.39-14.65 397.54-14.65L397.54-14.65 396.09-14.65 396.09 0 390.14 0ZM396.09-29.7L396.09-19 399.94-19Q402.74-19 404.26-20.25 405.79-21.5 405.79-23.95L405.79-23.95Q405.79-25.05 405.49-26.1 405.19-27.15 404.46-27.95 403.74-28.75 402.51-29.23 401.29-29.7 399.44-29.7L399.44-29.7 396.09-29.7ZM455.61 0L455.61-12.95 445.11-33.85 451.56-33.85 458.66-18.5 465.91-33.85 472.21-33.85 461.56-12.7 461.56 0 455.61 0ZM495.28-34.3Q499.03-34.3 501.68-33.1 504.33-31.9 506.05-29.7 507.78-27.5 508.58-24.33 509.38-21.15 509.38-17.2L509.38-17.2Q509.38-13.3 508.5-10.08 507.63-6.85 505.8-4.55 503.98-2.25 501.2-0.98 498.43 0.3 494.63 0.3L494.63 0.3Q490.88 0.3 488.2-0.83 485.53-1.95 483.8-4.13 482.08-6.3 481.28-9.4 480.48-12.5 480.48-16.5L480.48-16.5Q480.48-20.4 481.35-23.68 482.23-26.95 484.05-29.33 485.88-31.7 488.68-33 491.48-34.3 495.28-34.3L495.28-34.3ZM494.58-29.7Q492.38-29.7 490.93-28.73 489.48-27.75 488.58-26.05 487.68-24.35 487.3-22.05 486.93-19.75 486.93-17.05L486.93-17.05Q486.93-14.5 487.28-12.2 487.63-9.9 488.55-8.15 489.48-6.4 491.1-5.35 492.73-4.3 495.33-4.3L495.33-4.3Q497.48-4.3 498.95-5.25 500.43-6.2 501.33-7.85 502.23-9.5 502.6-11.78 502.98-14.05 502.98-16.7L502.98-16.7Q502.98-19.25 502.63-21.6 502.28-23.95 501.35-25.75 500.43-27.55 498.8-28.63 497.18-29.7 494.58-29.7L494.58-29.7ZM523.14-33.85L529.04-33.85 529.04-12.9Q529.04-8.25 530.99-6.28 532.94-4.3 536.29-4.3L536.29-4.3Q539.69-4.3 541.31-6.58 542.94-8.85 542.94-12.9L542.94-12.9 542.94-33.85 548.89-33.85 548.89-12.45Q548.89-9.85 548.21-7.55 547.54-5.25 545.99-3.5 544.44-1.75 541.89-0.73 539.34 0.3 535.64 0.3L535.64 0.3Q532.09 0.3 529.71-0.73 527.34-1.75 525.86-3.5 524.39-5.25 523.76-7.55 523.14-9.85 523.14-12.45L523.14-12.45 523.14-33.85Z" opacity="1" transform="matrix(1,0,0,1,0,0)" fill="#ffffff" class="slogan-text-1" data-fill-palette-color="secondary" id="text-1"></path></svg></g></svg></g></svg></g></svg></g><g transform="matrix(1,0,0,1,64.85201308677561,0)"><svg viewBox="0 0 78.2959738264488 71.37768207411065" height="71.37768207411065" width="78.2959738264488"><g><svg xmlns="http://www.w3.org/2000/svg" xmlns:xlink="http://www.w3.org/1999/xlink" version="1.1" x="0" y="0" viewBox="0 2.8280000000000003 63.99900030638877 58.343999999999994" enable-background="new 0 0 64 64" xml:space="preserve" height="71.37768207411065" width="78.2959738264488" class="icon-icon-0" data-fill-palette-color="accent" id="icon-0"><g fill="#000000" data-fill-palette-color="accent"><circle cx="54.502" cy="29.069" r="3.0" fill="#ffffff" data-fill-palette-color="accent"></circle><path d="M58.561 15.6H25.838L38.527 4.322l-1.328-1.494L24.453 14.155l-7.22-8.979L15.675 6.43l7.374 9.17H5.439C2.448 15.6 0 18.047 0 21.04v34.693c0 2.99 2.448 5.439 5.439 5.439h53.121c2.992 0 5.439-2.449 5.439-5.439V21.04C64 18.047 61.553 15.6 58.561 15.6zM45.34 52.965H8.072V23.807H45.34V52.965zM58.486 52.686H50.52v-2h7.967V52.686zM58.486 47.99H50.52v-2h7.967V47.99zM58.486 43.297H50.52v-2h7.967V43.297zM58.486 38.602H50.52v-2h7.967V38.602zM54.502 34.053c-2.748 0-4.982-2.236-4.982-4.984s2.234-4.984 4.982-4.984 4.984 2.236 4.984 4.984S57.25 34.053 54.502 34.053z" fill="#ffffff" data-fill-palette-color="accent"></path></g></svg></g></svg></g><g></g></svg></g></svg></g></svg></g></svg></g><defs></defs></svg><rect width="320" height="360" fill="none" stroke="none" visibility="hidden"></rect></g></svg></g></svg>